HIERARCHY
ROOT Hips
{
	OFFSET 0.000000 0.000000 0.000000
	CHANNELS 6 Xposition Yposition Zposition Zrotation Yrotation Xrotation 
	JOINT LowerBack
	{
		OFFSET 0.000000 0.000000 0.000000
		CHANNELS 3 Zrotation Yrotation Xrotation
		JOINT Spine
		{
			OFFSET 0.028270 2.035590 -0.193380
			CHANNELS 3 Zrotation Yrotation Xrotation
			JOINT Spine1
			{
				OFFSET 0.056720 2.048850 -0.042750
				CHANNELS 3 Zrotation Yrotation Xrotation
				JOINT Neck
				{
					OFFSET 0.000000 0.000000 0.000000
					CHANNELS 3 Zrotation Yrotation Xrotation
					JOINT Neck1
					{
						OFFSET -0.054170 1.746240 0.172020
						CHANNELS 3 Zrotation Yrotation Xrotation
						JOINT Head
						{
							OFFSET 0.104070 1.761360 -0.123970
							CHANNELS 3 Zrotation Yrotation Xrotation
							End Site
							{
								OFFSET 0.000000 0.000000 0.000000
							}
						}
					}
				}
				JOINT LeftShoulder
				{
					OFFSET 0.000000 0.000000 0.000000
					CHANNELS 3 Zrotation Yrotation Xrotation
					JOINT LeftArm
					{
						OFFSET 3.362410 1.200890 -0.311210
						CHANNELS 3 Zrotation Yrotation Xrotation
						JOINT LeftForeArm
						{
							OFFSET 4.983000 -0.000000 -0.000000
							CHANNELS 3 Zrotation Yrotation Xrotation
							JOINT LeftHand
							{
								OFFSET 3.483560 -0.000000 -0.000000
								CHANNELS 3 Zrotation Yrotation Xrotation
								JOINT LeftFingerBase
								{
									OFFSET 0.000000 0.000000 0.000000
									CHANNELS 3 Zrotation Yrotation Xrotation
									JOINT LeftHandIndex1
									{
										OFFSET 0.715260 -0.000000 -0.000000
										CHANNELS 3 Zrotation Yrotation Xrotation
										End Site
										{
											OFFSET 0.000000 0.000000 0.000000
										}
									}
								}
								JOINT LThumb
								{
									OFFSET 0.000000 0.000000 0.000000
									CHANNELS 3 Zrotation Yrotation Xrotation
									End Site
									{
										OFFSET 0.000000 0.000000 0.000000
									}
								}
							}
						}
					}
				}
				JOINT RightShoulder
				{
					OFFSET 0.000000 0.000000 0.000000
					CHANNELS 3 Zrotation Yrotation Xrotation
					JOINT RightArm
					{
						OFFSET -3.136600 1.374050 -0.404650
						CHANNELS 3 Zrotation Yrotation Xrotation
						JOINT RightForeArm
						{
							OFFSET -5.241900 -0.000000 -0.000000
							CHANNELS 3 Zrotation Yrotation Xrotation
							JOINT RightHand
							{
								OFFSET -3.444170 -0.000000 -0.000000
								CHANNELS 3 Zrotation Yrotation Xrotation
								JOINT RightFingerBase
								{
									OFFSET 0.000000 0.000000 0.000000
									CHANNELS 3 Zrotation Yrotation Xrotation
									JOINT RightHandIndex1
									{
										OFFSET -0.622530 -0.000000 -0.000000
										CHANNELS 3 Zrotation Yrotation Xrotation
										End Site
										{
											OFFSET 0.000000 0.000000 0.000000
										}
									}
								}
								JOINT RThumb
								{
									OFFSET 0.000000 0.000000 0.000000
									CHANNELS 3 Zrotation Yrotation Xrotation
									End Site
									{
										OFFSET 0.000000 0.000000 0.000000
									}
								}
							}
						}
					}
				}
			}
		}
	}
}
}
MOTION
Frames: 15
Frame Time: 0.008333
-20.223148 16.482321 -0.203212 0.811075 84.098470 15.319905 -11.416560 2.726909 -7.847128 -2.990912 3.450520 -4.770169 -4.111101 3.212167 -0.250058 4.082322 -3.788582 -8.139631 -1.343478 -0.101249 -0.112188 0.000000 0.000000 0.000000 -1.062888 19.336339 2.350970 -48.434104 35.199372 -7.134199 -5.411308 -4.830392 -0.006698 3.894927 3.152853 0.115103 -0.200863 -0.072852 -0.000000 0.000000 0.000000 0.000000 0.000000 0.000000 0.000000 1.106767 2.859760 -0.052008 34.256020 63.640882 21.099173 0.290545 74.478668 0.004756 2.826486 7.274001 0.204296 -0.167090 -0.534596 0.000000 0.000000 0.000000 0.000000 0.000000 0.000000 0.000000 
-20.050944 16.461795 -0.212762 3.570939 84.276682 17.671677 -11.736337 2.585074 -7.533429 -3.069334 3.335293 -4.722323 -4.217807 3.109964 -0.300298 4.312987 -3.481886 -8.101917 -1.436767 -0.108431 -0.112637 0.000000 0.000000 0.000000 -1.547232 18.898116 2.420544 -48.596019 33.971887 -6.972085 -5.412236 -4.528815 -0.006613 3.984276 3.190751 0.118596 -0.194215 -0.069252 -0.000000 0.000000 0.000000 0.000000 0.000000 0.000000 0.000000 1.592463 3.301918 0.125957 37.163490 62.663205 22.742960 0.358522 74.070243 0.006617 2.834290 7.206009 0.202135 -0.154263 -0.528436 0.000000 0.000000 0.000000 0.000000 0.000000 0.000000 0.000000 
-19.885695 16.435621 -0.223797 6.520784 84.445368 20.153215 -12.015993 2.446411 -7.114049 -3.137188 3.218732 -4.658172 -4.325144 3.008400 -0.377755 4.510003 -3.168675 -8.063282 -1.537817 -0.116116 -0.114544 0.000000 0.000000 0.000000 -2.068941 18.424801 2.513057 -48.799710 32.661940 -6.698779 -5.412450 -4.256970 -0.006555 4.039174 3.224720 0.121090 -0.187018 -0.065177 -0.000000 0.000000 0.000000 0.000000 0.000000 0.000000 0.000000 2.064942 3.777838 0.276131 40.035649 61.575135 24.266000 0.425727 73.565215 0.008189 2.813627 7.148051 0.198270 -0.140923 -0.521738 0.000000 0.000000 0.000000 0.000000 0.000000 0.000000 0.000000 
-19.727450 16.403650 -0.236574 9.495118 84.580276 22.604841 -12.243593 2.318222 -6.601739 -3.192728 3.106480 -4.582091 -4.435211 2.912311 -0.487732 4.675641 -2.839426 -8.016984 -1.647525 -0.124493 -0.115780 0.000000 0.000000 0.000000 -2.636548 17.914236 2.624682 -49.028791 31.293211 -6.287171 -5.411103 -4.028241 -0.006483 4.071281 3.250517 0.122588 -0.179310 -0.060768 -0.000000 0.000000 0.000000 0.000000 0.000000 0.000000 0.000000 2.527749 4.295857 0.396740 42.858539 60.368156 25.651630 0.492111 72.965190 0.009462 2.765102 7.101671 0.192897 -0.127364 -0.514758 0.000000 0.000000 0.000000 0.000000 0.000000 0.000000 0.000000 
-19.575507 16.366092 -0.251185 12.360384 84.666136 24.902189 -12.419120 2.203846 -6.013783 -3.236836 3.001558 -4.497989 -4.550782 2.823864 -0.629497 4.820384 -2.489938 -7.959666 -1.767433 -0.133746 -0.115271 0.000000 0.000000 0.000000 -3.242086 17.377164 2.752039 -49.273170 29.858943 -5.737434 -5.406384 -3.826706 -0.006332 4.100679 3.254734 0.123190 -0.171109 -0.056035 -0.000000 0.000000 0.000000 0.000000 0.000000 0.000000 0.000000 2.999186 4.855025 0.487791 45.600464 59.044296 26.881352 0.557160 72.273151 0.010361 2.680515 7.073339 0.185614 -0.113791 -0.507930 0.000000 0.000000 0.000000 0.000000 0.000000 0.000000 0.000000 
-19.429471 16.323460 -0.267483 15.036754 84.698276 26.978175 -12.550663 2.103188 -5.369980 -3.272034 2.904594 -4.409332 -4.674502 2.742921 -0.798466 4.959608 -2.119271 -7.889495 -1.899096 -0.144023 -0.112450 0.000000 0.000000 0.000000 -3.870948 16.827943 2.891264 -49.524329 28.339984 -5.059781 -5.396209 -3.627264 -0.006049 4.150599 3.222690 0.122998 -0.162378 -0.050959 -0.000000 0.000000 0.000000 0.000000 0.000000 0.000000 0.000000 3.504945 5.448369 0.552162 48.227084 57.610603 27.940718 0.620210 71.494236 0.010804 2.548746 7.070606 0.175920 -0.100328 -0.501702 0.000000 0.000000 0.000000 0.000000 0.000000 0.000000 0.000000 
-19.288716 16.276593 -0.285278 17.475624 84.678828 28.798591 -12.648558 2.014441 -4.690719 -3.301122 2.814959 -4.319635 -4.808387 2.668166 -0.990149 5.108054 -1.726328 -7.803534 -2.043276 -0.155424 -0.106442 0.000000 0.000000 0.000000 -4.511681 16.273338 3.037700 -49.771926 26.726422 -4.260517 -5.379233 -3.416371 -0.005613 4.241306 3.146366 0.122212 -0.153055 -0.045562 -0.000000 0.000000 0.000000 0.000000 0.000000 0.000000 0.000000 4.066904 6.067934 0.594846 50.713466 56.068975 28.817890 0.680618 70.634731 0.010745 2.362971 7.101415 0.163415 -0.087100 -0.496434 0.000000 0.000000 0.000000 0.000000 0.000000 0.000000 0.000000 
-19.152416 16.226585 -0.304192 19.670268 84.615289 30.372101 -12.723281 1.935375 -3.996450 -3.326751 2.731773 -4.233563 -4.953999 2.598055 -1.204948 5.277077 -1.305916 -7.693842 -2.199687 -0.168033 -0.094880 0.000000 0.000000 0.000000 -5.160096 15.696214 3.186213 -50.004074 25.042946 -3.352876 -5.355910 -3.203909 -0.005041 4.386432 3.025068 0.120929 -0.143107 -0.039935 -0.000000 0.000000 0.000000 0.000000 0.000000 0.000000 0.000000 4.697692 6.709946 0.622572 53.051118 54.405263 29.499147 0.737972 69.702522 0.010203 2.123535 7.168186 0.147898 -0.074262 -0.492306 0.000000 0.000000 0.000000 0.000000 0.000000 0.000000 0.000000 
-19.019949 16.174616 -0.323747 21.661083 84.518824 31.754527 -12.787154 1.862915 -3.306081 -3.351927 2.653453 -4.153774 -5.111909 2.530613 -1.437380 5.478525 -0.861382 -7.557971 -2.367515 -0.181796 -0.077035 0.000000 0.000000 0.000000 -5.799960 15.094153 3.332993 -50.217356 23.282035 -2.369927 -5.325678 -2.975739 -0.004357 4.603154 2.854030 0.119154 -0.132460 -0.034047 -0.000000 0.000000 0.000000 0.000000 0.000000 0.000000 0.000000 5.411089 7.360738 0.641219 55.228170 52.619622 29.975531 0.791435 68.697310 0.009159 1.828794 7.279479 0.129172 -0.061959 -0.489462 -0.000000 0.000000 0.000000 0.000000 0.000000 0.000000 0.000000 
-18.890609 16.121962 -0.343391 23.511589 84.401814 33.023949 -12.852366 1.794316 -2.636310 -3.379618 2.578659 -4.080470 -5.281726 2.464404 -1.674839 5.724158 -0.410034 -7.401043 -2.545643 -0.196516 -0.054364 0.000000 0.000000 0.000000 -6.408150 14.481195 3.474295 -50.415628 21.405563 -1.336407 -5.286933 -2.707353 -0.003611 4.910018 2.632242 0.116683 -0.120970 -0.027804 -0.000000 0.000000 0.000000 0.000000 0.000000 0.000000 0.000000 6.223171 7.992686 0.656300 57.231408 50.733605 30.253311 0.840206 67.608988 0.007554 1.469980 7.448081 0.106335 -0.050167 -0.487913 -0.000000 0.000000 0.000000 0.000000 0.000000 0.000000 0.000000 
-18.763948 16.069822 -0.362693 25.268115 84.275140 34.239586 -12.923534 1.729259 -2.001704 -3.410697 2.507915 -4.017046 -5.461915 2.399547 -1.919719 6.011910 0.049286 -7.215814 -2.730529 -0.211993 -0.024546 0.000000 0.000000 0.000000 -6.981283 13.824684 3.606992 -50.598029 19.454519 -0.293684 -5.241288 -2.420347 -0.002883 5.312197 2.366135 0.112817 -0.108666 -0.021280 -0.000000 0.000000 0.000000 0.000000 0.000000 0.000000 0.000000 7.118477 8.598602 0.671234 59.083948 48.728170 30.320948 0.883834 66.427019 0.005461 1.061455 7.676369 0.079489 -0.039220 -0.487387 -0.000000 0.000000 0.000000 0.000000 0.000000 0.000000 0.000000 
-18.639267 16.019343 -0.381194 27.007271 84.150590 35.487656 -13.007649 1.666236 -1.412561 -3.446723 2.440618 -3.961718 -5.650445 2.335552 -2.158353 6.345084 0.490538 -7.011827 -2.919715 -0.227862 0.009818 0.000000 0.000000 0.000000 -7.498984 13.136091 3.727925 -50.775748 17.394382 0.719658 -5.187361 -2.098970 -0.002267 5.820270 2.058704 0.106952 -0.095474 -0.014374 -0.000000 0.000000 0.000000 0.000000 0.000000 0.000000 0.000000 8.099474 9.143635 0.689239 60.787720 46.638321 30.196183 0.922020 65.123755 0.002842 0.597387 7.976581 0.047333 -0.029064 -0.487544 -0.000000 0.000000 0.000000 0.000000 0.000000 0.000000 0.000000 
-18.516476 15.971493 -0.398719 28.761034 84.038006 36.807427 -13.101468 1.605847 -0.876220 -3.486599 2.377590 -3.915129 -5.843933 2.273077 -2.389467 6.713048 0.907115 -6.789113 -3.108398 -0.243728 0.049135 0.000000 0.000000 0.000000 -7.957890 12.396430 3.835269 -50.957563 15.247837 1.664141 -5.125581 -1.762883 -0.001862 6.434945 1.716693 0.097989 -0.081485 -0.007146 -0.000000 0.000000 0.000000 0.000000 0.000000 0.000000 0.000000 9.136482 9.614182 0.709532 62.376173 44.463198 29.874025 0.954197 63.671803 -0.000235 0.090103 8.348320 0.009465 -0.019970 -0.487784 -0.000000 0.000000 0.000000 0.000000 0.000000 0.000000 0.000000 
-18.394951 15.927046 -0.415197 30.563544 83.946279 38.236218 -13.199997 1.547814 -0.395087 -3.528752 2.318621 -3.874853 -6.038008 2.212066 -2.604073 7.103740 1.287240 -6.557018 -3.291680 -0.259051 0.091135 0.000000 0.000000 0.000000 -8.349108 11.623060 3.927406 -51.156727 12.986236 2.521134 -5.054526 -1.409397 -0.001777 7.156299 1.345063 0.084824 -0.066823 0.000464 -0.000000 0.000000 0.000000 0.000000 0.000000 0.000000 0.000000 10.197826 9.992089 0.727821 63.880132 42.221387 29.351969 0.979291 62.038827 -0.003725 -0.453767 8.790884 -0.034917 -0.012122 -0.487410 -0.000000 0.000000 0.000000 0.000000 0.000000 0.000000 0.000000 
-18.274658 15.886709 -0.430725 32.449332 83.882787 39.807316 -13.296609 1.491956 0.030566 -3.571746 2.263319 -3.839670 -6.231314 2.152184 -2.798761 7.508995 1.608256 -6.320818 -3.467081 -0.273596 0.134860 0.000000 0.000000 0.000000 -8.676237 10.784978 4.002062 -51.383725 10.659991 3.229619 -4.974677 -1.085111 -0.002093 7.973572 0.951223 0.066056 -0.051746 0.008264 -0.000000 0.000000 0.000000 0.000000 0.000000 0.000000 0.000000 11.271627 10.251505 0.750257 65.311748 39.954050 28.647857 0.998049 60.184484 -0.007608 -1.042400 9.302770 -0.087913 -0.005200 -0.485724 -0.000000 0.000000 0.000000 0.000000 0.000000 0.000000 0.000000 
